HIERARCHY
ROOT joint_0
{
	OFFSET 0.000000 0.000000 0.000000
	CHANNELS 6 Xposition Yposition Zposition Zrotation Yrotation Xrotation 
	JOINT joint_1
	{
		OFFSET 6.579712 -2.778931 100.531982
		CHANNELS 3 Zrotation Yrotation Xrotation
		JOINT joint_2
		{
			OFFSET -3.313232 -1.302856 91.974976
			CHANNELS 3 Zrotation Yrotation Xrotation
			JOINT joint_3
			{
				OFFSET -3.421509 -1.641846 91.864014
				CHANNELS 3 Zrotation Yrotation Xrotation
				JOINT joint_4
				{
					OFFSET 7.697388 -4.642578 123.278931
					CHANNELS 3 Zrotation Yrotation Xrotation
					JOINT joint_5
					{
						OFFSET 24.842529 -5.941528 79.695068
						CHANNELS 3 Zrotation Yrotation Xrotation
						End Site
						{
							OFFSET 0.000000 0.000000 0.000000
						}
					}
				}
				JOINT joint_6
				{
					OFFSET -0.159668 -29.112976 68.364014
					CHANNELS 3 Zrotation Yrotation Xrotation
					JOINT joint_7
					{
						OFFSET -18.356079 -115.987061 -20.069092
						CHANNELS 3 Zrotation Yrotation Xrotation
						JOINT joint_8
						{
							OFFSET 31.719482 -11.733276 -267.170898
							CHANNELS 3 Zrotation Yrotation Xrotation
							JOINT joint_9
							{
								OFFSET 29.329956 -5.879517 -234.654053
								CHANNELS 3 Zrotation Yrotation Xrotation
								End Site
								{
									OFFSET 0.000000 0.000000 0.000000
								}
							}
						}
					}
				}
				JOINT joint_10
				{
					OFFSET 8.802979 23.897949 69.798950
					CHANNELS 3 Zrotation Yrotation Xrotation
					JOINT joint_11
					{
						OFFSET 21.159058 115.524292 -19.981934
						CHANNELS 3 Zrotation Yrotation Xrotation
						JOINT joint_12
						{
							OFFSET 18.809204 5.403442 -268.593018
							CHANNELS 3 Zrotation Yrotation Xrotation
							JOINT joint_13
							{
								OFFSET 20.807861 0.421265 -235.639038
								CHANNELS 3 Zrotation Yrotation Xrotation
								End Site
								{
									OFFSET 0.000000 0.000000 0.000000
								}
							}
						}
					}
				}
			}
		}
	}
	JOINT joint_14
	{
		OFFSET -9.713379 -79.513916 -99.348022
		CHANNELS 3 Zrotation Yrotation Xrotation
		JOINT joint_15
		{
			OFFSET -40.607788 -6.518372 -502.938019
			CHANNELS 3 Zrotation Yrotation Xrotation
			JOINT joint_16
			{
				OFFSET -19.807617 -7.437378 -399.590012
				CHANNELS 3 Zrotation Yrotation Xrotation
				JOINT joint_17
				{
					OFFSET 171.701660 -44.751282 -77.782000
					CHANNELS 3 Zrotation Yrotation Xrotation
					End Site
					{
						OFFSET 0.000000 0.000000 0.000000
					}
				}
			}
		}
	}
	JOINT joint_18
	{
		OFFSET 17.854858 79.618652 -98.128052
		CHANNELS 3 Zrotation Yrotation Xrotation
		JOINT joint_19
		{
			OFFSET -24.848877 16.861816 -503.722992
			CHANNELS 3 Zrotation Yrotation Xrotation
			JOINT joint_20
			{
				OFFSET -30.162476 14.470093 -398.750008
				CHANNELS 3 Zrotation Yrotation Xrotation
				JOINT joint_21
				{
					OFFSET 176.096680 -10.987549 -80.021000
					CHANNELS 3 Zrotation Yrotation Xrotation
					End Site
					{
						OFFSET 0.000000 0.000000 0.000000
					}
				}
			}
		}
	}
}
MOTION
Frames: 6
Frame Time: 0.016667
-974.549683 876.955139 1099.265991 28.704606 -0.049441 0.173276 0.598831 -1.496585 -0.722532 0.661760 0.193013 0.173162 0.642890 -0.347765 -0.129202 -0.336942 0.673573 1.286503 0.000000 0.000000 0.000000 2.296573 2.684444 -0.726874 0.083636 2.965738 -0.065511 0.044064 -2.074417 -1.064042 0.000000 0.000000 0.000000 -2.558644 0.809121 1.438594 -0.494267 1.925087 -2.655149 -0.021217 -3.019826 4.189786 0.000000 0.000000 0.000000 -0.439327 0.256572 -1.059541 -0.540077 0.252665 0.318374 -0.457074 -1.209444 -0.521800 0.000000 0.000000 0.000000 2.908474 -0.346821 1.813315 3.036922 -0.756350 -0.536884 2.989056 1.883942 1.480279 0.000000 0.000000 0.000000 
-974.529297 877.079346 1099.166016 28.685476 -0.044344 0.149726 0.605898 -1.483970 -0.720260 0.668343 0.190663 0.171969 0.649685 -0.343303 -0.127250 -0.341785 0.675031 1.302437 0.000000 0.000000 0.000000 2.306319 2.652533 -0.686121 0.077899 2.951562 -0.119513 0.045278 -2.082965 -1.059058 0.000000 0.000000 0.000000 -2.580355 0.756133 1.426316 -0.487529 1.871848 -2.641006 -0.021943 -3.019473 4.153991 0.000000 0.000000 0.000000 -0.435591 0.262343 -1.067620 -0.541073 0.229237 0.374292 -0.455298 -1.180336 -0.513417 0.000000 0.000000 0.000000 2.916375 -0.351881 1.872685 3.055271 -0.727150 -0.619873 2.994328 1.805178 1.477885 0.000000 0.000000 0.000000 
-974.501038 877.208069 1099.072998 28.673011 -0.038009 0.127237 0.610476 -1.474233 -0.715578 0.672431 0.189823 0.170532 0.653938 -0.340123 -0.125819 -0.344416 0.676873 1.311374 0.000000 0.000000 0.000000 2.318001 2.621195 -0.650440 0.071921 2.937861 -0.175705 0.047134 -2.088264 -1.047439 0.000000 0.000000 0.000000 -2.600254 0.711403 1.417653 -0.481926 1.827870 -2.631207 -0.022719 -3.019591 4.119164 0.000000 0.000000 0.000000 -0.433602 0.266904 -1.072286 -0.542851 0.208146 0.420590 -0.454912 -1.151662 -0.505782 0.000000 0.000000 0.000000 2.920902 -0.355776 1.924533 3.068651 -0.706176 -0.689091 2.997151 1.736900 1.475001 0.000000 0.000000 0.000000 
-974.475647 877.332214 1098.985962 28.663553 -0.029831 0.106705 0.613513 -1.464292 -0.711659 0.674964 0.187646 0.169728 0.656596 -0.337445 -0.125086 -0.345927 0.678900 1.316787 0.000000 0.000000 0.000000 2.330885 2.590488 -0.617594 0.065969 2.924546 -0.231904 0.049525 -2.095360 -1.032521 0.000000 0.000000 0.000000 -2.620251 0.672211 1.407162 -0.476419 1.789109 -2.621235 -0.022405 -3.012491 4.092499 0.000000 0.000000 0.000000 -0.432339 0.267973 -1.076249 -0.544930 0.190524 0.461757 -0.455004 -1.125524 -0.499023 0.000000 0.000000 0.000000 2.923872 -0.361629 1.971283 3.079675 -0.687905 -0.751781 2.998800 1.675136 1.471982 0.000000 0.000000 0.000000 
-974.454285 877.453430 1098.904053 28.656647 -0.019374 0.088475 0.614093 -1.456220 -0.709069 0.675104 0.186673 0.168355 0.656898 -0.333985 -0.123824 -0.346466 0.678847 1.318613 0.000000 0.000000 0.000000 2.346928 2.558975 -0.587899 0.059959 2.910587 -0.289093 0.052700 -2.107000 -1.013643 0.000000 0.000000 0.000000 -2.639543 0.638304 1.392654 -0.470691 1.754592 -2.609601 -0.020729 -2.996255 4.075001 0.000000 0.000000 0.000000 -0.431455 0.265108 -1.080545 -0.547122 0.176210 0.499069 -0.455284 -1.102472 -0.493152 0.000000 0.000000 0.000000 2.925693 -0.370255 2.013232 3.088890 -0.671542 -0.809583 2.999571 1.619944 1.468967 0.000000 0.000000 0.000000 
-974.434937 877.570618 1098.828003 28.652483 -0.006894 0.072411 0.613180 -1.448955 -0.708249 0.673877 0.185457 0.169030 0.655726 -0.331084 -0.123736 -0.345792 0.678580 1.316517 0.000000 0.000000 0.000000 2.363928 2.528085 -0.561459 0.053996 2.896840 -0.345947 0.056359 -2.120418 -0.991762 0.000000 0.000000 0.000000 -2.659220 0.609860 1.376540 -0.465051 1.725361 -2.598112 -0.017980 -2.972964 4.065605 0.000000 0.000000 0.000000 -0.431080 0.258612 -1.084398 -0.549415 0.165364 0.531302 -0.455857 -1.082126 -0.488119 0.000000 0.000000 0.000000 2.925873 -0.380972 2.049722 3.095593 -0.657786 -0.860476 2.998996 1.571274 1.465735 0.000000 0.000000 0.000000 
